{
  "asset": {
    "version": "2.0",
    "generator": "Chancery of Ink reconstructed route exporter",
    "extras": {
      "rights": "original project geometry",
      "confidence": "RECONSTRUCTED",
      "sources": [
        "SRC-PLAN-1840",
        "SRC-SAD-1835"
      ]
    }
  },
  "scene": 0,
  "scenes": [
    {
      "nodes": [
        0,
        1,
        2,
        3,
        4
      ]
    }
  ],
  "nodes": [
    {
      "name": "Canal-side office block",
      "mesh": 0,
      "translation": [
        -8,
        0,
        -22
      ],
      "scale": [
        18,
        9,
        10
      ],
      "extras": {
        "id": "L01",
        "name": "Canal-side office block",
        "floors": 3,
        "bays": 5,
        "widthMeters": 18,
        "confidence": "medium",
        "sources": [
          "SRC-PLAN-1840",
          "SRC-SAD-1835"
        ]
      }
    },
    {
      "name": "Corner lodging house",
      "mesh": 0,
      "translation": [
        8,
        0,
        -48
      ],
      "scale": [
        22,
        12,
        10
      ],
      "extras": {
        "id": "L02",
        "name": "Corner lodging house",
        "floors": 4,
        "bays": 6,
        "widthMeters": 22,
        "confidence": "medium",
        "sources": [
          "SRC-PLAN-1840",
          "SRC-SAD-1835"
        ]
      }
    },
    {
      "name": "Committee approach façade",
      "mesh": 0,
      "translation": [
        -8,
        0,
        -82
      ],
      "scale": [
        25,
        9,
        10
      ],
      "extras": {
        "id": "L03",
        "name": "Committee approach façade",
        "floors": 3,
        "bays": 7,
        "widthMeters": 25,
        "confidence": "low",
        "sources": [
          "SRC-PLAN-1840",
          "SRC-SAD-1835"
        ]
      }
    },
    {
      "name": "Print-shop frontage",
      "mesh": 0,
      "translation": [
        4,
        0,
        -108
      ],
      "scale": [
        14,
        6,
        10
      ],
      "extras": {
        "id": "L04",
        "name": "Print-shop frontage",
        "floors": 2,
        "bays": 4,
        "widthMeters": 14,
        "confidence": "medium",
        "sources": [
          "SRC-PLAN-1840",
          "SRC-SAD-1835"
        ]
      }
    },
    {
      "name": "Archive return block",
      "mesh": 0,
      "translation": [
        -4,
        0,
        -132
      ],
      "scale": [
        20,
        12,
        10
      ],
      "extras": {
        "id": "L05",
        "name": "Archive return block",
        "floors": 4,
        "bays": 5,
        "widthMeters": 20,
        "confidence": "low",
        "sources": [
          "SRC-PLAN-1840",
          "SRC-SAD-1835"
        ]
      }
    }
  ],
  "meshes": [
    {
      "name": "modular-reconstructed-facade",
      "primitives": [
        {
          "attributes": {
            "POSITION": 0
          },
          "indices": 1
        }
      ]
    }
  ],
  "buffers": [
    {
      "uri": "data:application/octet-stream;base64,",
      "byteLength": 168
    }
  ],
  "bufferViews": [
    {
      "buffer": 0,
      "byteOffset": 0,
      "byteLength": 96,
      "target": 34962
    },
    {
      "buffer": 0,
      "byteOffset": 96,
      "byteLength": 72,
      "target": 34963
    }
  ],
  "accessors": [
    {
      "bufferView": 0,
      "componentType": 5126,
      "count": 8,
      "type": "VEC3",
      "min": [
        -0.5,
        0,
        -0.5
      ],
      "max": [
        0.5,
        1,
        0.5
      ]
    },
    {
      "bufferView": 1,
      "componentType": 5123,
      "count": 36,
      "type": "SCALAR"
    }
  ]
}